<mxfile host="app.diagrams.net" agent="Mozilla/5.0 (Windows NT 10.0; Win64; x64) AppleWebKit/537.36 (KHTML, like Gecko) Chrome/136.0.0.0 Safari/537.36" version="27.0.3">
  <diagram name="Observability Architecture" id="6DLIA3g4k_VJgWlVC2TL">
    <mxGraphModel dx="75" dy="48" grid="0" gridSize="10" guides="1" tooltips="1" connect="1" arrows="1" fold="1" page="0" pageScale="1" pageWidth="850" pageHeight="1100" math="0" shadow="0">
      <root>
        <mxCell id="0" />
        <mxCell id="1" parent="0" />
        <mxCell id="U4MRM5uoJ8ETrOe1Ctdm-1" value="Pulse 集群节点" style="rounded=0;whiteSpace=wrap;html=1;fillColor=#f5f5f5;strokeColor=#666666;verticalAlign=top;align=center;fontStyle=1" parent="1" vertex="1">
          <mxGeometry x="80" y="100" width="360" height="280" as="geometry" />
        </mxCell>
        <mxCell id="U4MRM5uoJ8ETrOe1Ctdm-2" value="Server 节点" style="rounded=1;whiteSpace=wrap;html=1;fontSize=12;fillColor=#dae8fc;strokeColor=#6c8ebf;" parent="1" vertex="1">
          <mxGeometry x="110" y="150" width="140" height="100" as="geometry" />
        </mxCell>
        <mxCell id="U4MRM5uoJ8ETrOe1Ctdm-4" value="Agent 节点" style="rounded=1;whiteSpace=wrap;html=1;fontSize=12;fillColor=#d5e8d4;strokeColor=#82b366;" parent="1" vertex="1">
          <mxGeometry x="273" y="150" width="140" height="100" as="geometry" />
        </mxCell>
        <mxCell id="U4MRM5uoJ8ETrOe1Ctdm-6" value="gRPC Client&#xa;(grpc_client.go)" style="shape=cylinder3;whiteSpace=wrap;html=1;boundedLbl=1;backgroundOutline=1;size=15;fontSize=11;fillColor=#e1d5e7;strokeColor=#9673a6;" parent="1" vertex="1">
          <mxGeometry x="180" y="300" width="160" height="50" as="geometry" />
        </mxCell>
        <mxCell id="U4MRM5uoJ8ETrOe1Ctdm-7" value="Pulse Aggregator&#xa;(pulse-aggregator/internal)" style="shape=cloud;whiteSpace=wrap;html=1;fontSize=12;fillColor=#f8cecc;strokeColor=#b85450;" parent="1" vertex="1">
          <mxGeometry x="513" y="270" width="200" height="110" as="geometry" />
        </mxCell>
        <mxCell id="U4MRM5uoJ8ETrOe1Ctdm-8" value="前端UI&lt;br&gt;(ui/src)" style="shape=display;whiteSpace=wrap;html=1;fontSize=12;fillColor=#ffe6cc;strokeColor=#d79b00;" parent="1" vertex="1">
          <mxGeometry x="556" y="103" width="160" height="100" as="geometry" />
        </mxCell>
        <mxCell id="U4MRM5uoJ8ETrOe1Ctdm-9" style="edgeStyle=orthogonalEdgeStyle;rounded=0;orthogonalLoop=1;jettySize=auto;html=1;entryX=0.5;entryY=0;entryDx=0;entryDy=0;endArrow=classic;endFill=1;fontSize=10;" parent="1" source="U4MRM5uoJ8ETrOe1Ctdm-3" target="U4MRM5uoJ8ETrOe1Ctdm-6" edge="1">
          <mxGeometry relative="1" as="geometry">
            <Array as="points">
              <mxPoint x="180" y="280" />
              <mxPoint x="260" y="280" />
            </Array>
          </mxGeometry>
        </mxCell>
        <mxCell id="U4MRM5uoJ8ETrOe1Ctdm-11" value="gRPC Stream (Events)" style="endArrow=classic;html=1;rounded=0;exitX=1;exitY=0.5;exitDx=0;exitDy=0;entryX=0;entryY=0.5;entryDx=0;entryDy=0;fontSize=10;" parent="1" source="U4MRM5uoJ8ETrOe1Ctdm-6" target="U4MRM5uoJ8ETrOe1Ctdm-7" edge="1">
          <mxGeometry width="100" height="100" relative="1" as="geometry">
            <mxPoint x="400" y="325" as="sourcePoint" />
            <mxPoint x="510" y="255" as="targetPoint" />
            <Array as="points">
              <mxPoint x="430" y="325" />
              <mxPoint x="482" y="325" />
            </Array>
          </mxGeometry>
        </mxCell>
        <mxCell id="U4MRM5uoJ8ETrOe1Ctdm-12" value="WebSocket (Aggregated State/Events)" style="endArrow=classic;html=1;rounded=0;exitX=0.625;exitY=0.2;exitDx=0;exitDy=0;fontSize=10;exitPerimeter=0;" parent="1" source="U4MRM5uoJ8ETrOe1Ctdm-7" target="U4MRM5uoJ8ETrOe1Ctdm-8" edge="1">
          <mxGeometry width="100" height="100" relative="1" as="geometry">
            <mxPoint x="730" y="255" as="sourcePoint" />
            <mxPoint x="830" y="255" as="targetPoint" />
          </mxGeometry>
        </mxCell>
        <mxCell id="U4MRM5uoJ8ETrOe1Ctdm-3" value="Event Reporter" style="ellipse;shape=doubleEllipse;whiteSpace=wrap;html=1;aspect=fixed;fontSize=10;fillColor=#fff2cc;strokeColor=#d6b656;" parent="1" vertex="1">
          <mxGeometry x="152.25" y="209" width="55.5" height="55.5" as="geometry" />
        </mxCell>
        <mxCell id="qCjNLnQCHByZ_2LC-_I--1" value="Event Reporter" style="ellipse;shape=doubleEllipse;whiteSpace=wrap;html=1;aspect=fixed;fontSize=10;fillColor=#fff2cc;strokeColor=#d6b656;" vertex="1" parent="1">
          <mxGeometry x="315.25" y="203" width="55.5" height="55.5" as="geometry" />
        </mxCell>
        <mxCell id="qCjNLnQCHByZ_2LC-_I--2" style="edgeStyle=orthogonalEdgeStyle;rounded=0;orthogonalLoop=1;jettySize=auto;html=1;entryX=0.5;entryY=0;entryDx=0;entryDy=0;endArrow=classic;endFill=1;fontSize=10;exitX=0.5;exitY=1;exitDx=0;exitDy=0;" edge="1" parent="1" source="qCjNLnQCHByZ_2LC-_I--1" target="U4MRM5uoJ8ETrOe1Ctdm-6">
          <mxGeometry relative="1" as="geometry">
            <Array as="points">
              <mxPoint x="343" y="280" />
              <mxPoint x="260" y="280" />
            </Array>
            <mxPoint x="340" y="264.8193472919818" as="sourcePoint" />
          </mxGeometry>
        </mxCell>
      </root>
    </mxGraphModel>
  </diagram>
</mxfile>
